<?xml version="1.0" encoding="UTF-8" standalone="no"?>
<svg
   xmlns:dc="http://purl.org/dc/elements/1.1/"
   xmlns:cc="http://creativecommons.org/ns#"
   xmlns:rdf="http://www.w3.org/1999/02/22-rdf-syntax-ns#"
   xmlns:svg="http://www.w3.org/2000/svg"
   xmlns="http://www.w3.org/2000/svg"
   xmlns:sodipodi="http://sodipodi.sourceforge.net/DTD/sodipodi-0.dtd"
   xmlns:inkscape="http://www.inkscape.org/namespaces/inkscape"
   inkscape:version="1.0 (4035a4fb49, 2020-05-01)"
   sodipodi:docname="logo1.svg"
   viewBox="0 0 1600 1600"
   height="1600"
   width="1600"
   xml:space="preserve"
   id="svg851"
   version="1.1"><metadata
     id="metadata857"><rdf:RDF><cc:Work
         rdf:about=""><dc:format>image/svg+xml</dc:format><dc:type
           rdf:resource="http://purl.org/dc/dcmitype/StillImage" /><dc:title></dc:title></cc:Work></rdf:RDF></metadata><defs
     id="defs855"><rect
       id="rect995"
       height="1038.9304"
       width="617.34967"
       y="3980.4889"
       x="5749.5911" /><radialGradient
       id="radialGradient867"
       spreadMethod="pad"
       gradientTransform="matrix(6707.81,0,0,-6707.81,12781.288,2397.2194)"
       gradientUnits="userSpaceOnUse"
       r="1"
       cy="0"
       cx="0"
       fy="0"
       fx="0"><stop
         id="stop863"
         offset="0"
         style="stop-opacity:1;stop-color:#ffffff" /><stop
         id="stop865"
         offset="1"
         style="stop-opacity:1;stop-color:#e4e5e5" /></radialGradient><clipPath
       id="clipPath877"
       clipPathUnits="userSpaceOnUse"><path
         id="path875"
         d="m 5521.27,6516.38 c 8.17,61.66 72.65,98.92 129.97,74.78 38.37,-16.15 63.78,-56.47 56.57,-101.49 -8.98,-59.1 -70.16,-96.48 -127.9,-73.57 -38.17,15.15 -64.81,53.59 -58.64,100.28 z m 1452.92,148.26 c -9.79,-55.42 -67.38,-93.24 -125.28,-72.07 -38.5,14.13 -66,51.38 -61.27,98.75 6.83,63.16 72.7,102.75 132.16,76.07 37.29,-16.78 62.06,-55.93 54.39,-102.75 z m -1167.56,-671.6 c 203.85,117.19 27.32,15.67 958.44,551.29 128.06,-109.05 323.27,4.07 292.87,168.51 -7.19,39.96 -27.54,75.3 -56.51,101.49 -128.96,116.41 -331.55,-0.47 -296.04,-170.31 -1006.76,-579.14 -797.56,-458.81 -1067.17,-613.88 -315.76,90.92 -583.82,294.98 -757.49,565.52 145.88,83.87 822.83,473.3 1045.95,601.62 31.68,-28.14 73.3,-45.4 118.92,-45.4 110.73,0 198.6,100.72 176.29,215.23 1004.25,577.76 847.09,487.34 976.27,561.6 59.85,-116.12 103.33,-241.98 127.1,-374.62 -348.3,-200.27 -1230.59,-707.85 -1591.86,-915.69 -116,102.53 -298.43,19.5 -298.43,-134.46 0,-51.88 22.4,-101.12 62.07,-135.56 126.99,-110.48 326.37,0.82 294.04,169.17 1523.45,876.38 1233.13,709.35 1550.64,891.98 72.63,-866.66 -684.43,-1565.55 -1535.09,-1436.49 z m 723.47,2136.23 c -9.09,-57.97 -68.81,-95.92 -127.4,-73.32 -37.94,14.85 -64.84,52.68 -59.12,100 7.97,62.52 73.53,99.55 130.43,75.07 37.73,-16.07 63.28,-55.43 56.09,-101.75 z m -579.06,-797.68 c 0,4.97 0.73,9.75 1.48,14.57 7.03,45.23 45.97,80.08 93.08,80.08 12.21,0 23.81,-2.56 34.47,-6.74 35.16,-13.77 60.14,-47.88 60.14,-87.91 0,-4.19 -0.55,-8.11 -1.12,-12.08 -6.01,-46.44 -45.34,-82.54 -93.49,-82.54 -12.99,0 -25.57,2.69 -36.96,7.52 -33.78,14.43 -57.6,48.05 -57.6,87.1 z m -916.5,603.67 c 7.19,62.99 73.37,101.9 131.75,75.78 38.22,-16.94 62.92,-58.17 54.85,-102.42 -9.63,-56.12 -67.66,-94.02 -125.87,-72.43 -38.15,14.26 -65.4,50.72 -60.73,99.07 z m 1213.86,698.22 c -199.55,-114.78 29.88,17.17 -1000.37,-575.42 -115.51,103.96 -299.57,21.48 -299.57,-133.44 0,-100.11 81.89,-179.69 179.67,-179.69 110.29,0 197.01,99.85 176.66,211.8 1054.2,606.54 837.04,481.55 1106.61,636.58 304.22,-96.37 561.75,-298.87 729.04,-563.8 -401.09,-230.7 -576.22,-331.42 -977.35,-562.2 -31.45,27.32 -72.49,43.97 -117.49,43.97 -99.07,0 -179.58,-80.62 -179.58,-179.69 0,-11.41 1.13,-22.55 3.18,-33.35 -1103.88,-635.05 -927.42,-533.57 -1046.99,-602.28 -61.16,116.34 -105.54,242.64 -130.28,375.87 306.66,176.37 101.53,58.37 1627.79,936.37 115.71,-100.5 296.94,-17.87 296.94,135.72 0,98.81 -80.24,179.69 -179.63,179.69 -111.85,0 -198.68,-102.37 -176.12,-215.28 -1666.69,-958.72 -1257.66,-723.43 -1586.09,-912.32 -78.44,885.44 706.36,1595.56 1573.58,1437.47 z m -240.42,135.45 c -800.84,0 -1452.28,-651.48 -1452.28,-1452.26 0,-800.78 651.44,-1452.26 1452.28,-1452.26 800.74,0 1452.19,651.48 1452.19,1452.26 0,800.78 -651.45,1452.26 -1452.19,1452.26 z" /></clipPath><linearGradient
       id="linearGradient883"
       spreadMethod="pad"
       gradientTransform="matrix(-1.387e-4,-3173.94,-3173.94,1.387e-4,6007.93,8964.41)"
       gradientUnits="userSpaceOnUse"
       y2="0"
       x2="1"
       y1="0"
       x1="0"><stop
         id="stop879"
         offset="0"
         style="stop-opacity:1;stop-color:#358da8" /><stop
         id="stop881"
         offset="1"
         style="stop-opacity:1;stop-color:#27334b" /></linearGradient><clipPath
       id="clipPath935"
       clipPathUnits="userSpaceOnUse"><path
         id="path933"
         d="m 2547.3,1481.1 c 4.08,30.7 36.17,49.3 64.67,37.2 19.07,-8 31.74,-28.1 28.14,-50.5 -4.46,-29.4 -34.89,-48 -63.64,-36.6 -18.97,7.5 -32.24,26.7 -29.17,49.9 z m 722.9,73.8 c -4.86,-27.6 -33.53,-46.4 -62.34,-35.9 -19.14,7.1 -32.83,25.6 -30.48,49.2 3.4,31.4 36.18,51.1 65.76,37.8 18.55,-8.4 30.86,-27.8 27.06,-51.1 z m -580.93,-334.2 c 101.44,58.4 13.6,7.8 476.89,274.3 63.7,-54.2 160.83,2.1 145.71,83.9 -3.57,19.9 -13.71,37.5 -28.12,50.4 -64.17,58 -164.96,-0.1 -147.27,-84.7 -500.93,-288.1 -396.85,-228.3 -530.99,-305.4 -157.1,45.2 -290.48,146.8 -376.89,281.4 72.6,41.7 409.4,235.5 520.43,299.3 15.75,-14 36.46,-22.6 59.16,-22.6 55.09,0 98.81,50.1 87.7,107.1 499.69,287.46 421.48,242.48 485.74,279.42 29.78,-57.78 51.44,-120.38 63.26,-186.42 -173.32,-99.6 -612.29,-352.1 -792.03,-455.6 -57.72,51 -148.5,9.7 -148.5,-66.9 0,-25.8 11.17,-50.3 30.9,-67.4 63.18,-55 162.37,0.4 146.3,84.2 757.97,436 613.54,352.9 771.52,443.8 36.11,-431.2 -340.57,-779 -763.81,-714.8 z m 359.97,1062.92 c -4.52,-28.83 -34.24,-47.73 -63.39,-36.46 -18.88,7.35 -32.26,26.17 -29.4,49.71 3.98,31.14 36.59,49.55 64.88,37.36 18.78,-8 31.46,-27.59 27.91,-50.61 z M 2761.15,1886.7 c 0,2.5 0.35,4.9 0.73,7.3 3.49,22.5 22.87,39.8 46.31,39.8 6.08,0 11.83,-1.3 17.15,-3.3 17.49,-6.9 29.92,-23.8 29.92,-43.8 0,-2.1 -0.27,-4 -0.54,-6 -3.03,-23.1 -22.59,-41 -46.53,-41 -6.47,0 -12.74,1.3 -18.39,3.7 -16.8,7.2 -28.65,23.9 -28.65,43.3 z m -456.01,300.36 c 3.57,31.36 36.52,50.75 65.55,37.74 19.01,-8.43 31.3,-28.95 27.29,-50.95 -4.81,-27.94 -33.66,-46.82 -62.62,-36.06 -18.99,7.07 -32.55,25.23 -30.22,49.27 z m 603.94,347.43 c -99.28,-57.12 14.88,8.52 -497.73,-286.32 -57.46,51.73 -149.05,10.69 -149.05,-66.37 0,-49.84 40.74,-89.41 89.39,-89.41 54.89,0 98.02,49.67 87.92,105.39 524.51,301.78 416.45,239.58 550.57,316.72 151.37,-47.95 279.49,-148.71 362.73,-280.52 -199.56,-114.77 -286.69,-164.9 -486.26,-279.68 -15.66,13.6 -36.09,21.8 -58.46,21.8 -49.29,0 -89.36,-40.1 -89.36,-89.4 0,-5.7 0.56,-11.2 1.59,-16.5 -549.22,-316.1 -461.42,-265.5 -520.93,-299.7 -30.43,57.8 -52.51,120.7 -64.83,187 152.6,87.7 50.52,29 809.91,465.86 57.58,-50.01 147.74,-8.86 147.74,67.53 0,49.19 -39.92,89.41 -89.37,89.41 -55.64,0 -98.85,-50.93 -87.62,-107.12 -829.27,-476.98 -625.74,-359.88 -789.16,-453.88 -39.04,440.51 351.46,793.84 782.92,715.19 z m -119.62,67.39 c -398.44,0 -722.58,-324.15 -722.58,-722.58 0,-398.4 324.14,-722.6 722.58,-722.6 398.41,0 722.55,324.2 722.55,722.6 0,398.43 -324.14,722.58 -722.55,722.58 z" /></clipPath><linearGradient
       id="linearGradient941"
       spreadMethod="pad"
       gradientTransform="matrix(-6.9e-5,-1579.23,-1579.23,6.9e-5,2789.45,2699.15)"
       gradientUnits="userSpaceOnUse"
       y2="0"
       x2="1"
       y1="0"
       x1="0"><stop
         id="stop937"
         offset="0"
         style="stop-opacity:1;stop-color:#7ecb2a" /><stop
         id="stop939"
         offset="1"
         style="stop-opacity:1;stop-color:#1f6634" /></linearGradient><clipPath
       id="clipPath951"
       clipPathUnits="userSpaceOnUse"><path
         id="path949"
         d="m 5757.87,1481.1 c 4.05,30.7 36.13,49.3 64.65,37.2 19.09,-8 31.75,-28.1 28.16,-50.5 -4.49,-29.4 -34.9,-48 -63.64,-36.6 -19,7.5 -32.26,26.7 -29.17,49.9 z m 722.87,73.8 c -4.86,-27.6 -33.48,-46.4 -62.3,-35.9 -19.15,7.1 -32.86,25.6 -30.49,49.2 3.41,31.4 36.16,51.1 65.75,37.8 18.53,-8.4 30.85,-27.8 27.04,-51.1 z m -580.91,-334.2 c 101.42,58.4 13.6,7.8 476.86,274.3 63.73,-54.2 160.83,2.1 145.72,83.9 -3.61,19.9 -13.67,37.5 -28.12,50.4 -64.16,58 -164.91,-0.1 -147.25,-84.7 -500.93,-288.1 -396.83,-228.3 -530.99,-305.4 -157.1,45.2 -290.48,146.8 -376.88,281.4 72.59,41.7 409.39,235.5 520.4,299.3 15.77,-14 36.47,-22.6 59.16,-22.6 55.1,0 98.83,50.1 87.73,107.1 499.65,287.46 421.43,242.48 485.71,279.42 29.8,-57.78 51.42,-120.38 63.25,-186.42 -173.28,-99.6 -612.28,-352.1 -792.02,-455.6 -57.7,51 -148.48,9.7 -148.48,-66.9 0,-25.8 11.17,-50.3 30.89,-67.4 63.17,-55 162.37,0.4 146.29,84.2 757.99,436 613.53,352.9 771.51,443.8 36.12,-431.2 -340.53,-779 -763.78,-714.8 z m 359.96,1062.92 c -4.53,-28.83 -34.24,-47.73 -63.41,-36.46 -18.85,7.35 -32.2,26.17 -29.38,49.71 3.98,31.14 36.55,49.55 64.91,37.36 18.76,-8 31.47,-27.59 27.88,-50.61 z m -288.1,-396.92 c 0,2.5 0.35,4.9 0.74,7.3 3.5,22.5 22.85,39.8 46.3,39.8 6.08,0 11.87,-1.3 17.15,-3.3 17.48,-6.9 29.95,-23.8 29.95,-43.8 0,-2.1 -0.27,-4 -0.59,-6 -3.02,-23.1 -22.56,-41 -46.51,-41 -6.46,0 -12.7,1.3 -18.39,3.7 -16.8,7.2 -28.65,23.9 -28.65,43.3 z m -455.99,300.36 c 3.57,31.36 36.5,50.75 65.55,37.74 19.01,-8.43 31.3,-28.95 27.29,-50.95 -4.8,-27.94 -33.68,-46.82 -62.62,-36.06 -18.99,7.07 -32.55,25.23 -30.22,49.27 z m 603.92,347.43 c -99.28,-57.12 14.88,8.52 -497.71,-286.32 -57.46,51.73 -149.05,10.69 -149.05,-66.37 0,-49.84 40.74,-89.41 89.4,-89.41 54.88,0 98.02,49.67 87.91,105.39 524.5,301.78 416.43,239.58 550.55,316.72 151.37,-47.95 279.48,-148.71 362.76,-280.52 -199.58,-114.77 -286.7,-164.9 -486.28,-279.68 -15.65,13.6 -36.08,21.8 -58.47,21.8 -49.27,0 -89.32,-40.1 -89.32,-89.4 0,-5.7 0.55,-11.2 1.53,-16.5 -549.18,-316.1 -461.38,-265.5 -520.89,-299.7 -30.43,57.8 -52.51,120.7 -64.83,187 152.6,87.7 50.52,29 809.9,465.86 57.58,-50.01 147.76,-8.86 147.76,67.53 0,49.19 -39.93,89.41 -89.41,89.41 -55.63,0 -98.82,-50.93 -87.64,-107.12 -829.22,-476.98 -625.68,-359.88 -789.11,-453.88 -39.04,440.51 351.44,793.84 782.9,715.19 z m -119.6,67.39 c -398.44,0 -722.57,-324.15 -722.57,-722.58 0,-398.4 324.13,-722.6 722.57,-722.6 398.41,0 722.52,324.2 722.52,722.6 0,398.43 -324.11,722.58 -722.52,722.58 z" /></clipPath><linearGradient
       id="linearGradient957"
       spreadMethod="pad"
       gradientTransform="matrix(-6.9e-5,-1579.23,-1579.23,6.9e-5,5999.99,2699.15)"
       gradientUnits="userSpaceOnUse"
       y2="0"
       x2="1"
       y1="0"
       x1="0"><stop
         id="stop953"
         offset="0"
         style="stop-opacity:1;stop-color:#9c1662" /><stop
         id="stop955"
         offset="1"
         style="stop-opacity:1;stop-color:#26275d" /></linearGradient><clipPath
       id="clipPath967"
       clipPathUnits="userSpaceOnUse"><path
         id="path965"
         d="m 8968.43,1481.1 c 4.07,30.7 36.15,49.3 64.67,37.2 19.12,-8 31.72,-28.1 28.16,-50.5 -4.5,-29.4 -34.92,-48 -63.66,-36.6 -19,7.5 -32.24,26.7 -29.17,49.9 z m 722.89,73.8 c -4.86,-27.6 -33.53,-46.4 -62.31,-35.9 -19.15,7.1 -32.86,25.6 -30.48,49.2 3.41,31.4 36.16,51.1 65.75,37.8 18.54,-8.4 30.85,-27.8 27.04,-51.1 z m -580.89,-334.2 c 101.38,58.4 13.56,7.8 476.84,274.3 63.73,-54.2 160.84,2.1 145.73,83.9 -3.62,19.9 -13.67,37.5 -28.13,50.4 -64.17,58 -164.92,-0.1 -147.29,-84.7 -500.9,-288.1 -396.81,-228.3 -530.97,-305.4 -157.07,45.2 -290.46,146.8 -376.89,281.4 72.59,41.7 409.4,235.5 520.46,299.3 15.73,-14 36.42,-22.6 59.16,-22.6 55.06,0 98.77,50.1 87.69,107.1 499.63,287.46 421.44,242.48 485.73,279.42 29.79,-57.78 51.43,-120.38 63.24,-186.42 -173.29,-99.6 -612.28,-352.1 -792.04,-455.6 -57.68,51 -148.45,9.7 -148.45,-66.9 0,-25.8 11.15,-50.3 30.88,-67.4 63.15,-55 162.35,0.4 146.27,84.2 758.01,436 613.56,352.9 771.53,443.8 36.11,-431.2 -340.54,-779 -763.76,-714.8 z m 359.96,1062.92 c -4.55,-28.83 -34.27,-47.73 -63.44,-36.46 -18.83,7.35 -32.19,26.17 -29.36,49.71 3.96,31.14 36.55,49.55 64.91,37.36 18.72,-8 31.46,-27.59 27.89,-50.61 z M 9182.25,1886.7 c 0,2.5 0.35,4.9 0.78,7.3 3.45,22.5 22.83,39.8 46.31,39.8 6.05,0 11.83,-1.3 17.12,-3.3 17.48,-6.9 29.95,-23.8 29.95,-43.8 0,-2.1 -0.32,-4 -0.59,-6 -3.03,-23.1 -22.57,-41 -46.48,-41 -6.5,0 -12.75,1.3 -18.42,3.7 -16.82,7.2 -28.67,23.9 -28.67,43.3 z m -455.97,300.36 c 3.53,31.36 36.47,50.75 65.54,37.74 19.03,-8.43 31.31,-28.95 27.3,-50.95 -4.81,-27.94 -33.68,-46.82 -62.62,-36.06 -18.99,7.07 -32.54,25.23 -30.22,49.27 z m 603.93,347.43 c -99.28,-57.12 14.87,8.52 -497.74,-286.32 -57.44,51.73 -149.03,10.69 -149.03,-66.37 0,-49.84 40.74,-89.41 89.38,-89.41 54.89,0 98.03,49.67 87.93,105.39 524.49,301.78 416.44,239.58 550.55,316.72 151.37,-47.95 279.47,-148.71 362.75,-280.52 -199.57,-114.77 -286.7,-164.9 -486.27,-279.68 -15.65,13.6 -36.08,21.8 -58.44,21.8 -49.3,0 -89.35,-40.1 -89.35,-89.4 0,-5.7 0.55,-11.2 1.55,-16.5 -549.19,-316.1 -461.39,-265.5 -520.91,-299.7 -30.45,57.8 -52.5,120.7 -64.83,187 152.57,87.7 50.5,29 809.91,465.86 57.56,-50.01 147.75,-8.86 147.75,67.53 0,49.19 -39.93,89.41 -89.42,89.41 -55.61,0 -98.82,-50.93 -87.61,-107.12 C 8507.17,1796.2 8710.7,1913.3 8547.3,1819.3 c -39.04,440.51 351.4,793.84 782.91,715.19 z m -119.6,67.39 c -398.44,0 -722.59,-324.15 -722.59,-722.58 0,-398.4 324.15,-722.6 722.59,-722.6 398.4,0 722.51,324.2 722.51,722.6 0,398.43 -324.11,722.58 -722.51,722.58 z" /></clipPath><linearGradient
       id="linearGradient975"
       spreadMethod="pad"
       gradientTransform="matrix(-6.9e-5,-1579.23,-1579.23,6.9e-5,9210.57,2699.15)"
       gradientUnits="userSpaceOnUse"
       y2="0"
       x2="1"
       y1="0"
       x1="0"><stop
         id="stop969"
         offset="0"
         style="stop-opacity:1;stop-color:#d02425" /><stop
         id="stop971"
         offset="0.0159574"
         style="stop-opacity:1;stop-color:#d02425" /><stop
         id="stop973"
         offset="1"
         style="stop-opacity:1;stop-color:#90191e" /></linearGradient></defs><sodipodi:namedview
     inkscape:current-layer="g861"
     inkscape:window-maximized="1"
     inkscape:window-y="27"
     inkscape:window-x="0"
     inkscape:cy="800"
     inkscape:cx="800"
     inkscape:zoom="0.5025"
     showgrid="false"
     id="namedview853"
     inkscape:window-height="1000"
     inkscape:window-width="1920"
     inkscape:pageshadow="2"
     inkscape:pageopacity="0"
     guidetolerance="10"
     gridtolerance="10"
     objecttolerance="10"
     borderopacity="1"
     bordercolor="#666666"
     pagecolor="#ffffff" /><g
     transform="matrix(1.3333333,0,0,-1.3333333,0,1600)"
     inkscape:label="ink_ext_XXXXXX"
     inkscape:groupmode="layer"
     id="g859"><g
       transform="scale(0.1)"
       id="g861"><g
         style="opacity:0.86392146;fill-opacity:1;fill:#f2d5bb"
         id="g871"><g
           style="fill-opacity:1;fill:#f2d5bb"
           clip-path="url(#clipPath877)"
           id="g873"><path
             id="path885"
             style="fill:#f2d5bb;fill-opacity:1;fill-rule:nonzero;stroke:none"
             d="m 5521.27,6516.38 c 8.17,61.66 72.65,98.92 129.97,74.78 38.37,-16.15 63.78,-56.47 56.57,-101.49 -8.98,-59.1 -70.16,-96.48 -127.9,-73.57 -38.17,15.15 -64.81,53.59 -58.64,100.28 z m 1452.92,148.26 c -9.79,-55.42 -67.38,-93.24 -125.28,-72.07 -38.5,14.13 -66,51.38 -61.27,98.75 6.83,63.16 72.7,102.75 132.16,76.07 37.29,-16.78 62.06,-55.93 54.39,-102.75 z m -1167.56,-671.6 c 203.85,117.19 27.32,15.67 958.44,551.29 128.06,-109.05 323.27,4.07 292.87,168.51 -7.19,39.96 -27.54,75.3 -56.51,101.49 -128.96,116.41 -331.55,-0.47 -296.04,-170.31 -1006.76,-579.14 -797.56,-458.81 -1067.17,-613.88 -315.76,90.92 -583.82,294.98 -757.49,565.52 145.88,83.87 822.83,473.3 1045.95,601.62 31.68,-28.14 73.3,-45.4 118.92,-45.4 110.73,0 198.6,100.72 176.29,215.23 1004.25,577.76 847.09,487.34 976.27,561.6 59.85,-116.12 103.33,-241.98 127.1,-374.62 -348.3,-200.27 -1230.59,-707.85 -1591.86,-915.69 -116,102.53 -298.43,19.5 -298.43,-134.46 0,-51.88 22.4,-101.12 62.07,-135.56 126.99,-110.48 326.37,0.82 294.04,169.17 1523.45,876.38 1233.13,709.35 1550.64,891.98 72.63,-866.66 -684.43,-1565.55 -1535.09,-1436.49 z m 723.47,2136.23 c -9.09,-57.97 -68.81,-95.92 -127.4,-73.32 -37.94,14.85 -64.84,52.68 -59.12,100 7.97,62.52 73.53,99.55 130.43,75.07 37.73,-16.07 63.28,-55.43 56.09,-101.75 z m -579.06,-797.68 c 0,4.97 0.73,9.75 1.48,14.57 7.03,45.23 45.97,80.08 93.08,80.08 12.21,0 23.81,-2.56 34.47,-6.74 35.16,-13.77 60.14,-47.88 60.14,-87.91 0,-4.19 -0.55,-8.11 -1.12,-12.08 -6.01,-46.44 -45.34,-82.54 -93.49,-82.54 -12.99,0 -25.57,2.69 -36.96,7.52 -33.78,14.43 -57.6,48.05 -57.6,87.1 z m -916.5,603.67 c 7.19,62.99 73.37,101.9 131.75,75.78 38.22,-16.94 62.92,-58.17 54.85,-102.42 -9.63,-56.12 -67.66,-94.02 -125.87,-72.43 -38.15,14.26 -65.4,50.72 -60.73,99.07 z m 1213.86,698.22 c -199.55,-114.78 29.88,17.17 -1000.37,-575.42 -115.51,103.96 -299.57,21.48 -299.57,-133.44 0,-100.11 81.89,-179.69 179.67,-179.69 110.29,0 197.01,99.85 176.66,211.8 1054.2,606.54 837.04,481.55 1106.61,636.58 304.22,-96.37 561.75,-298.87 729.04,-563.8 -401.09,-230.7 -576.22,-331.42 -977.35,-562.2 -31.45,27.32 -72.49,43.97 -117.49,43.97 -99.07,0 -179.58,-80.62 -179.58,-179.69 0,-11.41 1.13,-22.55 3.18,-33.35 -1103.88,-635.05 -927.42,-533.57 -1046.99,-602.28 -61.16,116.34 -105.54,242.64 -130.28,375.87 306.66,176.37 101.53,58.37 1627.79,936.37 115.71,-100.5 296.94,-17.87 296.94,135.72 0,98.81 -80.24,179.69 -179.63,179.69 -111.85,0 -198.68,-102.37 -176.12,-215.28 -1666.69,-958.72 -1257.66,-723.43 -1586.09,-912.32 -78.44,885.44 706.36,1595.56 1573.58,1437.47 z m -240.42,135.45 c -800.84,0 -1452.28,-651.48 -1452.28,-1452.26 0,-800.78 651.44,-1452.26 1452.28,-1452.26 800.74,0 1452.19,651.48 1452.19,1452.26 0,800.78 -651.45,1452.26 -1452.19,1452.26" /></g></g><text
         style="font-style:normal;font-weight:normal;font-size:300px;line-height:1.25;font-family:sans-serif;white-space:pre;shape-inside:url(#rect995);fill:#000000;fill-opacity:1;stroke:none;"
         id="text993"
         xml:space="preserve"><tspan
           style="visibility:hidden"
           x="5749.5918"
           y="5284.8496"><tspan
             dx="0 156.29883 164.94141 190.42969">scdc</tspan></tspan></text></g></g></svg>
